# xmcd
#
# Track frame offsets: 
#        150
#        49578
#        89550
#        112788
#        152536
#        187274
#
# Disc length: 2873 seconds
#
# Revision: 0
# Processed by: cddbd v1.5.2PL0 Copyright (c) Steve Scherf et al.
# Submitted via: ExactAudioCopyFreeDBPlugin 1.0
#
DISCID=440b3706
DTITLE=The Devil And The Almighty Blues - II
DYEAR=2017
DGENRE=Southern Rock
TTITLE0=These Old Hands
TTITLE1=North Road
TTITLE2=When The Light Dies
TTITLE3=Low
TTITLE4=How Strange The Silence
TTITLE5=Neptune Brothers
EXTD=
EXTT0=
EXTT1=
EXTT2=
EXTT3=
EXTT4=
EXTT5=
PLAYORDER=
